<?xml version="1.0" encoding="iso-8859-1"?>
<!-- Generator: Adobe Illustrator 18.0.0, SVG Export Plug-In . SVG Version: 6.00 Build 0)  -->
<!DOCTYPE svg PUBLIC "-//W3C//DTD SVG 1.1//EN" "http://www.w3.org/Graphics/SVG/1.1/DTD/svg11.dtd">
<svg version="1.1" id="_x31_" xmlns="http://www.w3.org/2000/svg" xmlns:xlink="http://www.w3.org/1999/xlink" x="0px" y="0px"
	 viewBox="0 0 512 512" style="enable-background:new 0 0 512 512;" xml:space="preserve">
<g>
	<rect style="fill:#E17B80;" width="512" height="512"/>
	<polygon style="opacity:0.1;fill:#231815;" points="512,209.101 512,512 182.118,512 92.262,422.144 88.217,418.048 
		88.217,220.569 92.262,216.525 187.034,121.753 227.994,80.742 383.642,80.742 394.035,91.136 399.923,97.024 406.989,104.089 	"/>
	<g>
		<g>
			<g>
				<rect x="345.951" y="141.553" style="fill:#EAB528;" width="73.54" height="33.834"/>
			</g>
			<g>
				<rect x="350.235" y="97.035" style="fill:#962229;" width="73.54" height="33.834"/>
			</g>
			<g>
				<rect x="341.668" y="186.072" style="fill:#188A96;" width="73.54" height="33.834"/>
			</g>
			<g style="opacity:0.1;">
				<rect x="333.438" y="141.553" style="fill:#060001;" width="73.54" height="33.834"/>
			</g>
			<g style="opacity:0.1;">
				<rect x="333.438" y="97.035" style="fill:#060001;" width="73.54" height="33.834"/>
			</g>
			<g style="opacity:0.1;">
				<rect x="333.438" y="186.072" style="fill:#060001;" width="73.54" height="33.834"/>
			</g>
			<g>
				<rect x="120.781" y="80.742" style="fill:#F5F1E8;" width="273.254" height="350.567"/>
			</g>
			<g>
				<rect x="92.269" y="80.719" style="fill:#0D545B;" width="94.764" height="350.612"/>
			</g>
			<g>
				<rect x="88.217" y="80.742" style="fill:#F5CE35;" width="8.09" height="350.567"/>
			</g>
			<g>
				<path style="fill:#FFFFFF;" d="M165.632,109.312H120.73v8.755h27.546l-27.494,17.715l-0.051,0.051v7.834h44.903v-8.755h-27.495
					l27.495-17.817V109.312z"/>
				<path style="fill:#FFFFFF;" d="M152.781,157.133c-0.103-0.256-0.256-0.512-0.41-0.717c-0.717-1.331-1.485-2.406-2.458-3.277
					c-1.587-1.485-3.379-2.509-5.325-2.97c-1.946-0.512-4.454-0.768-7.424-0.768c-2.97,0-5.427,0.256-7.424,0.768
					c-1.946,0.461-3.738,1.485-5.376,2.97c-1.075,1.024-1.997,2.355-2.816,3.994c-0.358,0.666-0.614,1.433-0.768,2.253
					c-0.307,1.126-0.461,2.457-0.461,3.942c0,1.434,0.154,2.714,0.461,3.891c0.153,0.819,0.409,1.536,0.768,2.201
					c0.819,1.69,1.741,3.021,2.816,4.096c1.587,1.485,3.379,2.509,5.325,2.969c0.666,0.154,1.433,0.307,2.202,0.41
					c1.536,0.205,3.277,0.307,5.274,0.307c2.969,0,5.478-0.205,7.424-0.768c1.946-0.461,3.738-1.485,5.325-2.918
					c1.126-1.075,2.048-2.407,2.867-4.096c0.819-1.638,1.177-3.686,1.177-6.093C153.958,160.87,153.6,158.771,152.781,157.133z
					 M145.152,167.117c-0.871,0.87-1.946,1.382-3.379,1.587c-0.614,0.102-1.229,0.205-1.894,0.205
					c-0.819,0.102-1.741,0.102-2.713,0.102c-1.69,0-3.277-0.051-4.659-0.307c-1.331-0.205-2.509-0.717-3.328-1.587
					c-0.972-0.973-1.433-2.202-1.433-3.789c0-1.587,0.461-2.867,1.433-3.84c0.819-0.87,1.997-1.382,3.328-1.587
					c1.382-0.153,2.97-0.256,4.659-0.256c1.689,0,3.225,0.102,4.608,0.256c1.434,0.205,2.509,0.717,3.379,1.587
					c0.768,0.768,1.178,1.69,1.331,2.816c0.103,0.307,0.103,0.665,0.103,1.024C146.586,164.915,146.125,166.144,145.152,167.117z"/>
				<path style="fill:#FFFFFF;" d="M152.627,183.091v-3.482h-6.195v3.482H130.15c-1.229,0-2.355,0.205-3.482,0.512
					c-1.075,0.358-2.099,0.922-2.969,1.69c-0.871,0.819-1.587,1.792-2.151,2.969c-0.409,0.922-0.716,1.946-0.768,3.175
					c-0.051,0.358-0.051,0.768-0.051,1.177v4.454h6.963v-2.97c0-1.843,0.973-2.816,2.918-2.816h15.821v5.786h6.195v-5.786h9.728
					v-8.192H152.627z"/>
				<path style="fill:#FFFFFF;" d="M152.883,208.64c-0.768-1.741-1.843-3.226-3.277-4.454c-1.434-1.331-3.174-2.304-5.274-2.97
					c-1.792-0.614-3.84-0.921-6.144-0.973c-0.359-0.051-0.666-0.051-1.024-0.051c-3.328,0-6.042,0.41-8.243,1.28
					c-2.15,0.87-3.84,1.997-5.12,3.43c-1.331,1.382-2.15,3.021-2.714,4.864c-0.103,0.461-0.256,0.922-0.307,1.383
					c-0.307,1.382-0.461,2.765-0.461,4.25c0,0.922,0.051,1.741,0.154,2.509c0.051,0.512,0.102,0.973,0.205,1.433
					c0.051,0.154,0.051,0.256,0.103,0.41c0.153,1.075,0.461,1.997,0.87,2.867c0.461,0.922,0.973,1.843,1.587,2.714
					c0.717,0.819,1.485,1.689,2.304,2.509l4.864-4.967c-1.024-1.024-1.792-2.099-2.355-3.174c-0.512-1.024-0.768-2.458-0.768-4.25
					c0-2.355,0.717-4.147,2.048-5.376c1.382-1.229,3.123-1.792,5.274-1.792v20.531h3.482c2.304,0,4.403-0.358,6.4-0.973
					c1.946-0.614,3.635-1.536,5.069-2.714c1.382-1.28,2.458-2.765,3.277-4.557c0.768-1.792,1.126-3.789,1.126-6.092
					C153.958,212.326,153.6,210.432,152.883,208.64z M146.176,217.907c-0.614,0.922-1.433,1.638-2.406,2.048
					c-0.614,0.358-1.178,0.461-1.69,0.563c-0.512,0.102-1.178,0.154-1.894,0.205v-12.441c0.717,0,1.383,0.051,1.894,0.153
					c0.512,0.051,1.075,0.256,1.69,0.563c0.973,0.461,1.792,1.126,2.406,2.048c0.666,0.922,0.973,2.048,0.973,3.431
					C147.149,215.859,146.842,217.037,146.176,217.907z"/>
				<path style="fill:#FFFFFF;" d="M120.73,234.291v18.79c0,0.512,0,1.024,0.051,1.536c0.102,1.536,0.409,2.918,0.87,4.198
					c0.614,1.639,1.485,3.174,2.56,4.301c1.126,1.229,2.457,2.15,4.045,2.765c1.587,0.666,3.379,0.973,5.376,0.973
					c1.587,0,3.021-0.256,4.249-0.717c1.28-0.41,2.407-1.126,3.482-2.099c0.41-0.41,0.871-0.921,1.178-1.331
					c0.359-0.512,0.768-1.178,1.229-2.048c1.997,3.738,5.171,5.53,9.523,5.53c1.894,0,3.584-0.307,5.12-0.921
					c1.485-0.717,2.765-1.639,3.84-2.816c1.127-1.229,1.894-2.663,2.509-4.404c0.563-1.689,0.871-3.635,0.871-5.683v-18.073H120.73z
					 M139.571,252.211c0,1.792-0.461,3.226-1.434,4.249c-0.973,1.075-2.304,1.587-4.045,1.587c-1.741,0-3.072-0.512-4.045-1.587
					c-1.024-1.024-1.485-2.458-1.485-4.249v-9.165h11.008V252.211z M157.798,251.597c0,1.843-0.461,3.225-1.383,4.301
					c-0.921,1.024-2.15,1.536-3.789,1.536c-1.587,0-2.867-0.512-3.738-1.536c-0.922-1.075-1.434-2.458-1.434-4.301v-8.551h10.342
					V251.597z"/>
				<path style="fill:#FFFFFF;" d="M152.781,278.835c-0.819-1.638-1.741-3.021-2.867-4.045c-1.587-1.485-3.379-2.458-5.325-2.97
					c-1.946-0.512-4.454-0.768-7.424-0.768c-2.97,0-5.427,0.256-7.424,0.768c-1.946,0.512-3.738,1.485-5.376,2.97
					c-1.075,1.024-1.997,2.407-2.816,4.045c-0.358,0.666-0.614,1.383-0.768,2.202c-0.307,1.126-0.461,2.457-0.461,3.891
					c0,1.434,0.154,2.765,0.461,3.891c0.153,0.819,0.409,1.587,0.768,2.253c0.819,1.638,1.741,3.072,2.816,4.045
					c1.587,1.536,3.379,2.56,5.325,3.021c2.048,0.512,4.506,0.768,7.475,0.768c2.969,0,5.478-0.307,7.424-0.768
					c1.946-0.512,3.738-1.536,5.325-3.021c1.126-0.973,2.048-2.407,2.867-4.045c0.819-1.69,1.177-3.686,1.177-6.144
					C153.958,282.47,153.6,280.473,152.781,278.835z M145.152,288.768c-0.871,0.871-1.946,1.331-3.379,1.587
					c-1.383,0.205-2.918,0.307-4.608,0.307c-1.69,0-3.277-0.102-4.659-0.307c-1.331-0.256-2.509-0.717-3.328-1.587
					c-0.972-0.973-1.433-2.253-1.433-3.84c0-1.536,0.461-2.816,1.433-3.789c0.819-0.819,1.997-1.382,3.328-1.536
					c1.382-0.256,2.97-0.358,4.659-0.358c1.689,0,3.225,0.103,4.608,0.358c1.434,0.154,2.509,0.717,3.379,1.536
					c0.973,0.973,1.433,2.253,1.433,3.789C146.586,286.515,146.125,287.795,145.152,288.768z"/>
				<path style="fill:#FFFFFF;" d="M152.781,310.323c-0.819-1.638-1.741-2.97-2.867-4.045c-1.075-0.973-2.253-1.741-3.533-2.304
					c-0.614-0.256-1.178-0.461-1.792-0.614c-1.946-0.512-4.454-0.768-7.424-0.768c-2.97,0-5.427,0.256-7.424,0.768
					c-1.946,0.461-3.738,1.485-5.376,2.918c-1.075,1.075-1.997,2.406-2.816,4.045c-0.358,0.666-0.614,1.434-0.768,2.253
					c-0.307,1.126-0.461,2.406-0.461,3.891c0,1.433,0.154,2.765,0.461,3.942c0.153,0.819,0.409,1.536,0.768,2.202
					c0.717,1.485,1.587,2.765,2.509,3.686c0.051,0.154,0.205,0.307,0.308,0.41c1.587,1.485,3.379,2.509,5.325,2.97
					c2.048,0.512,4.506,0.716,7.475,0.716c2.969,0,5.478-0.205,7.424-0.768c1.946-0.461,3.738-1.485,5.325-2.918
					c1.126-1.075,2.048-2.407,2.867-4.096c0.819-1.638,1.177-3.686,1.177-6.144C153.958,314.061,153.6,311.962,152.781,310.323z
					 M145.152,320.307c-0.871,0.87-1.946,1.382-3.379,1.587c-1.383,0.205-2.918,0.307-4.608,0.307c-1.69,0-3.277-0.103-4.659-0.307
					c-1.126-0.154-2.099-0.563-2.867-1.229c-0.153-0.051-0.307-0.205-0.461-0.358c-0.972-0.973-1.433-2.253-1.433-3.84
					c0-1.536,0.461-2.816,1.433-3.789c0.819-0.871,1.997-1.383,3.328-1.587c1.382-0.154,2.97-0.307,4.659-0.307
					c0.819,0,1.587,0.051,2.304,0.102c0.819,0.051,1.587,0.103,2.304,0.205c1.434,0.205,2.509,0.717,3.379,1.587
					c0.973,0.973,1.433,2.253,1.433,3.789C146.586,318.054,146.125,319.334,145.152,320.307z"/>
				<path style="fill:#FFFFFF;" d="M165.632,335.513H120.73v8.192h9.779l3.943,3.43l-13.67,8.039l-0.051,0.051v10.189l0.051-0.051
					l19.559-12.595l13.261,11.776v-9.933l-13.466-10.906h25.498V335.513z"/>
			</g>
			<g>
				<path style="fill:#FFFFFF;" d="M165.632,109.312H120.73v8.755h27.546l-27.494,17.715l-0.051,0.051v7.834h44.903v-8.755h-27.495
					l27.495-17.817V109.312z"/>
				<path style="fill:#FFFFFF;" d="M152.781,157.133c-0.103-0.256-0.256-0.512-0.41-0.717c-0.717-1.331-1.485-2.406-2.458-3.277
					c-1.587-1.485-3.379-2.509-5.325-2.97c-1.946-0.512-4.454-0.768-7.424-0.768c-2.97,0-5.427,0.256-7.424,0.768
					c-1.946,0.461-3.738,1.485-5.376,2.97c-1.075,1.024-1.997,2.355-2.816,3.994c-0.358,0.666-0.614,1.433-0.768,2.253
					c-0.307,1.126-0.461,2.457-0.461,3.942c0,1.434,0.154,2.714,0.461,3.891c0.153,0.819,0.409,1.536,0.768,2.201
					c0.819,1.69,1.741,3.021,2.816,4.096c1.587,1.485,3.379,2.509,5.325,2.969c0.666,0.154,1.433,0.307,2.202,0.41
					c1.536,0.205,3.277,0.307,5.274,0.307c2.969,0,5.478-0.205,7.424-0.768c1.946-0.461,3.738-1.485,5.325-2.918
					c1.126-1.075,2.048-2.407,2.867-4.096c0.819-1.638,1.177-3.686,1.177-6.093C153.958,160.87,153.6,158.771,152.781,157.133z
					 M145.152,167.117c-0.871,0.87-1.946,1.382-3.379,1.587c-0.614,0.102-1.229,0.205-1.894,0.205
					c-0.819,0.102-1.741,0.102-2.713,0.102c-1.69,0-3.277-0.051-4.659-0.307c-1.331-0.205-2.509-0.717-3.328-1.587
					c-0.972-0.973-1.433-2.202-1.433-3.789c0-1.587,0.461-2.867,1.433-3.84c0.819-0.87,1.997-1.382,3.328-1.587
					c1.382-0.153,2.97-0.256,4.659-0.256c1.689,0,3.225,0.102,4.608,0.256c1.434,0.205,2.509,0.717,3.379,1.587
					c0.768,0.768,1.178,1.69,1.331,2.816c0.103,0.307,0.103,0.665,0.103,1.024C146.586,164.915,146.125,166.144,145.152,167.117z"/>
				<path style="fill:#FFFFFF;" d="M152.627,183.091v-3.482h-6.195v3.482H130.15c-1.229,0-2.355,0.205-3.482,0.512
					c-1.075,0.358-2.099,0.922-2.969,1.69c-0.871,0.819-1.587,1.792-2.151,2.969c-0.409,0.922-0.716,1.946-0.768,3.175
					c-0.051,0.358-0.051,0.768-0.051,1.177v4.454h6.963v-2.97c0-1.843,0.973-2.816,2.918-2.816h15.821v5.786h6.195v-5.786h9.728
					v-8.192H152.627z"/>
				<path style="fill:#FFFFFF;" d="M152.883,208.64c-0.768-1.741-1.843-3.226-3.277-4.454c-1.434-1.331-3.174-2.304-5.274-2.97
					c-1.792-0.614-3.84-0.921-6.144-0.973c-0.359-0.051-0.666-0.051-1.024-0.051c-3.328,0-6.042,0.41-8.243,1.28
					c-2.15,0.87-3.84,1.997-5.12,3.43c-1.331,1.382-2.15,3.021-2.714,4.864c-0.103,0.461-0.256,0.922-0.307,1.383
					c-0.307,1.382-0.461,2.765-0.461,4.25c0,0.922,0.051,1.741,0.154,2.509c0.051,0.512,0.102,0.973,0.205,1.433
					c0.051,0.154,0.051,0.256,0.103,0.41c0.153,1.075,0.461,1.997,0.87,2.867c0.461,0.922,0.973,1.843,1.587,2.714
					c0.717,0.819,1.485,1.689,2.304,2.509l4.864-4.967c-1.024-1.024-1.792-2.099-2.355-3.174c-0.512-1.024-0.768-2.458-0.768-4.25
					c0-2.355,0.717-4.147,2.048-5.376c1.382-1.229,3.123-1.792,5.274-1.792v20.531h3.482c2.304,0,4.403-0.358,6.4-0.973
					c1.946-0.614,3.635-1.536,5.069-2.714c1.382-1.28,2.458-2.765,3.277-4.557c0.768-1.792,1.126-3.789,1.126-6.092
					C153.958,212.326,153.6,210.432,152.883,208.64z M146.176,217.907c-0.614,0.922-1.433,1.638-2.406,2.048
					c-0.614,0.358-1.178,0.461-1.69,0.563c-0.512,0.102-1.178,0.154-1.894,0.205v-12.441c0.717,0,1.383,0.051,1.894,0.153
					c0.512,0.051,1.075,0.256,1.69,0.563c0.973,0.461,1.792,1.126,2.406,2.048c0.666,0.922,0.973,2.048,0.973,3.431
					C147.149,215.859,146.842,217.037,146.176,217.907z"/>
				<path style="fill:#FFFFFF;" d="M120.73,234.291v18.79c0,0.512,0,1.024,0.051,1.536c0.102,1.536,0.409,2.918,0.87,4.198
					c0.614,1.639,1.485,3.174,2.56,4.301c1.126,1.229,2.457,2.15,4.045,2.765c1.587,0.666,3.379,0.973,5.376,0.973
					c1.587,0,3.021-0.256,4.249-0.717c1.28-0.41,2.407-1.126,3.482-2.099c0.41-0.41,0.871-0.921,1.178-1.331
					c0.359-0.512,0.768-1.178,1.229-2.048c1.997,3.738,5.171,5.53,9.523,5.53c1.894,0,3.584-0.307,5.12-0.921
					c1.485-0.717,2.765-1.639,3.84-2.816c1.127-1.229,1.894-2.663,2.509-4.404c0.563-1.689,0.871-3.635,0.871-5.683v-18.073H120.73z
					 M139.571,252.211c0,1.792-0.461,3.226-1.434,4.249c-0.973,1.075-2.304,1.587-4.045,1.587c-1.741,0-3.072-0.512-4.045-1.587
					c-1.024-1.024-1.485-2.458-1.485-4.249v-9.165h11.008V252.211z M157.798,251.597c0,1.843-0.461,3.225-1.383,4.301
					c-0.921,1.024-2.15,1.536-3.789,1.536c-1.587,0-2.867-0.512-3.738-1.536c-0.922-1.075-1.434-2.458-1.434-4.301v-8.551h10.342
					V251.597z"/>
				<path style="fill:#FFFFFF;" d="M152.781,278.835c-0.819-1.638-1.741-3.021-2.867-4.045c-1.587-1.485-3.379-2.458-5.325-2.97
					c-1.946-0.512-4.454-0.768-7.424-0.768c-2.97,0-5.427,0.256-7.424,0.768c-1.946,0.512-3.738,1.485-5.376,2.97
					c-1.075,1.024-1.997,2.407-2.816,4.045c-0.358,0.666-0.614,1.383-0.768,2.202c-0.307,1.126-0.461,2.457-0.461,3.891
					c0,1.434,0.154,2.765,0.461,3.891c0.153,0.819,0.409,1.587,0.768,2.253c0.819,1.638,1.741,3.072,2.816,4.045
					c1.587,1.536,3.379,2.56,5.325,3.021c2.048,0.512,4.506,0.768,7.475,0.768c2.969,0,5.478-0.307,7.424-0.768
					c1.946-0.512,3.738-1.536,5.325-3.021c1.126-0.973,2.048-2.407,2.867-4.045c0.819-1.69,1.177-3.686,1.177-6.144
					C153.958,282.47,153.6,280.473,152.781,278.835z M145.152,288.768c-0.871,0.871-1.946,1.331-3.379,1.587
					c-1.383,0.205-2.918,0.307-4.608,0.307c-1.69,0-3.277-0.102-4.659-0.307c-1.331-0.256-2.509-0.717-3.328-1.587
					c-0.972-0.973-1.433-2.253-1.433-3.84c0-1.536,0.461-2.816,1.433-3.789c0.819-0.819,1.997-1.382,3.328-1.536
					c1.382-0.256,2.97-0.358,4.659-0.358c1.689,0,3.225,0.103,4.608,0.358c1.434,0.154,2.509,0.717,3.379,1.536
					c0.973,0.973,1.433,2.253,1.433,3.789C146.586,286.515,146.125,287.795,145.152,288.768z"/>
				<path style="fill:#FFFFFF;" d="M152.781,310.323c-0.819-1.638-1.741-2.97-2.867-4.045c-1.075-0.973-2.253-1.741-3.533-2.304
					c-0.614-0.256-1.178-0.461-1.792-0.614c-1.946-0.512-4.454-0.768-7.424-0.768c-2.97,0-5.427,0.256-7.424,0.768
					c-1.946,0.461-3.738,1.485-5.376,2.918c-1.075,1.075-1.997,2.406-2.816,4.045c-0.358,0.666-0.614,1.434-0.768,2.253
					c-0.307,1.126-0.461,2.406-0.461,3.891c0,1.433,0.154,2.765,0.461,3.942c0.153,0.819,0.409,1.536,0.768,2.202
					c0.717,1.485,1.587,2.765,2.509,3.686c0.051,0.154,0.205,0.307,0.308,0.41c1.587,1.485,3.379,2.509,5.325,2.97
					c2.048,0.512,4.506,0.716,7.475,0.716c2.969,0,5.478-0.205,7.424-0.768c1.946-0.461,3.738-1.485,5.325-2.918
					c1.126-1.075,2.048-2.407,2.867-4.096c0.819-1.638,1.177-3.686,1.177-6.144C153.958,314.061,153.6,311.962,152.781,310.323z
					 M145.152,320.307c-0.871,0.87-1.946,1.382-3.379,1.587c-1.383,0.205-2.918,0.307-4.608,0.307c-1.69,0-3.277-0.103-4.659-0.307
					c-1.126-0.154-2.099-0.563-2.867-1.229c-0.153-0.051-0.307-0.205-0.461-0.358c-0.972-0.973-1.433-2.253-1.433-3.84
					c0-1.536,0.461-2.816,1.433-3.789c0.819-0.871,1.997-1.383,3.328-1.587c1.382-0.154,2.97-0.307,4.659-0.307
					c0.819,0,1.587,0.051,2.304,0.102c0.819,0.051,1.587,0.103,2.304,0.205c1.434,0.205,2.509,0.717,3.379,1.587
					c0.973,0.973,1.433,2.253,1.433,3.789C146.586,318.054,146.125,319.334,145.152,320.307z"/>
				<path style="fill:#FFFFFF;" d="M165.632,335.513H120.73v8.192h9.779l3.943,3.43l-13.67,8.039l-0.051,0.051v10.189l0.051-0.051
					l19.559-12.595l13.261,11.776v-9.933l-13.466-10.906h25.498V335.513z"/>
			</g>
			<g>
				<rect x="187.019" y="250.68" style="fill:#565657;" width="115.224" height="15.925"/>
			</g>
			<g>
				<rect x="215.549" y="308.29" style="fill:#565657;" width="154.627" height="2.248"/>
			</g>
			<g>
				<rect x="215.549" y="350.445" style="fill:#565657;" width="154.627" height="2.248"/>
			</g>
			<g>
				<rect x="215.549" y="392.6" style="fill:#565657;" width="154.627" height="2.248"/>
			</g>
		</g>
		<polygon style="opacity:0.05;fill:#231815;" points="419.491,141.553 419.491,175.387 394.031,175.387 394.031,186.072 
			415.207,186.072 415.207,219.906 394.031,219.906 394.031,431.332 132.937,431.332 132.937,404.909 165.471,372.375 
			168.744,369.15 184.193,353.701 187.033,350.862 191.075,346.819 227.364,310.53 229.626,308.268 231.743,306.151 
			244.401,293.541 287.283,250.659 333.438,204.456 341.668,196.227 351.823,186.072 396.341,141.553 		"/>
	</g>
	<polygon style="opacity:0.05;fill:#231815;" points="434.483,115.098 434.483,122.88 416.666,122.88 424.448,115.098 	"/>
</g>
</svg>
