<svg width="274.801" height="74.901" viewBox="0 0 274.801 74.901" xmlns="http://www.w3.org/2000/svg"><g id="svgGroup" stroke-linecap="round" fill-rule="evenodd" font-size="9pt" stroke="#e2e2dd" stroke-width="0.25mm" fill="#e2e2dd" style="stroke:#e2e2dd;stroke-width:0.25mm;fill:#e2e2dd"><path d="M 184.9 74 L 166.7 74 L 147.9 50.4 L 147.9 74 L 133.9 74 L 133.9 0 L 147.9 0 L 147.9 42.1 L 166.5 18.6 L 184.7 18.6 L 160.3 46.4 L 184.9 74 Z M 52.8 41.5 L 52.8 74 L 38.8 74 L 38.8 43.4 A 21.16 21.16 0 0 0 38.453 39.441 Q 37.73 35.649 35.5 33.25 Q 32.2 29.7 26.5 29.7 A 15.319 15.319 0 0 0 22.648 30.158 A 10.877 10.877 0 0 0 17.35 33.25 Q 14.417 36.358 14.052 41.804 A 23.865 23.865 0 0 0 14 43.4 L 14 74 L 0 74 L 0 18.6 L 14 18.6 L 14 25.5 A 19.308 19.308 0 0 1 21.014 19.914 A 22.341 22.341 0 0 1 21.15 19.85 A 21.75 21.75 0 0 1 29.413 17.832 A 25.607 25.607 0 0 1 30.7 17.8 A 25.503 25.503 0 0 1 37.986 18.792 A 19.897 19.897 0 0 1 46.7 24.05 A 20.537 20.537 0 0 1 51.832 33.361 Q 52.679 36.578 52.785 40.397 A 39.796 39.796 0 0 1 52.8 41.5 Z M 106.1 26.5 L 106.1 18.6 L 120.2 18.6 L 120.2 74 L 106.1 74 L 106.1 65.9 A 19.688 19.688 0 0 1 101.16 70.809 A 24.679 24.679 0 0 1 98.65 72.35 A 21.31 21.31 0 0 1 91.433 74.651 A 27.168 27.168 0 0 1 87.7 74.9 Q 80.7 74.9 74.95 71.3 A 24.734 24.734 0 0 1 66.725 62.741 A 29.952 29.952 0 0 1 65.85 61.15 Q 62.5 54.6 62.5 46.1 Q 62.5 37.7 65.85 31.2 A 26.056 26.056 0 0 1 70.674 24.539 A 23.289 23.289 0 0 1 74.95 21.2 A 24.182 24.182 0 0 1 87.578 17.701 A 28.681 28.681 0 0 1 87.8 17.7 A 26.101 26.101 0 0 1 93.272 18.249 A 20.239 20.239 0 0 1 98.65 20.2 A 23.797 23.797 0 0 1 103.408 23.525 A 20.199 20.199 0 0 1 106.1 26.5 Z M 232.3 26.5 L 232.3 18.6 L 246.4 18.6 L 246.4 74 L 232.3 74 L 232.3 65.9 A 19.688 19.688 0 0 1 227.36 70.809 A 24.679 24.679 0 0 1 224.85 72.35 A 21.31 21.31 0 0 1 217.633 74.651 A 27.168 27.168 0 0 1 213.9 74.9 Q 206.9 74.9 201.15 71.3 A 24.734 24.734 0 0 1 192.925 62.741 A 29.952 29.952 0 0 1 192.05 61.15 Q 188.7 54.6 188.7 46.1 Q 188.7 37.7 192.05 31.2 A 26.056 26.056 0 0 1 196.874 24.539 A 23.289 23.289 0 0 1 201.15 21.2 A 24.182 24.182 0 0 1 213.778 17.701 A 28.681 28.681 0 0 1 214 17.7 A 26.101 26.101 0 0 1 219.472 18.249 A 20.239 20.239 0 0 1 224.85 20.2 A 23.797 23.797 0 0 1 229.608 23.525 A 20.199 20.199 0 0 1 232.3 26.5 Z M 106.1 46.3 A 21.755 21.755 0 0 0 105.717 42.115 A 15.729 15.729 0 0 0 104.1 37.55 A 14.54 14.54 0 0 0 100.688 33.335 A 13.72 13.72 0 0 0 98.7 31.95 Q 95.3 30 91.4 30 Q 87.5 30 84.2 31.9 A 13.928 13.928 0 0 0 79.556 36.299 A 17.098 17.098 0 0 0 78.85 37.45 A 15.719 15.719 0 0 0 77.088 42.54 A 21.102 21.102 0 0 0 76.8 46.1 A 20.612 20.612 0 0 0 77.281 50.65 A 16.106 16.106 0 0 0 78.85 54.85 A 15.763 15.763 0 0 0 81.699 58.644 A 13.876 13.876 0 0 0 84.25 60.6 Q 87.6 62.6 91.4 62.6 Q 95.3 62.6 98.7 60.65 A 14.018 14.018 0 0 0 103.909 55.388 A 16.714 16.714 0 0 0 104.1 55.05 A 15.793 15.793 0 0 0 105.744 50.345 A 21.887 21.887 0 0 0 106.1 46.3 Z M 232.3 46.3 A 21.755 21.755 0 0 0 231.917 42.115 A 15.729 15.729 0 0 0 230.3 37.55 A 14.54 14.54 0 0 0 226.888 33.335 A 13.72 13.72 0 0 0 224.9 31.95 Q 221.5 30 217.6 30 Q 213.7 30 210.4 31.9 A 13.928 13.928 0 0 0 205.756 36.299 A 17.098 17.098 0 0 0 205.05 37.45 A 15.719 15.719 0 0 0 203.288 42.54 A 21.102 21.102 0 0 0 203 46.1 A 20.612 20.612 0 0 0 203.481 50.65 A 16.106 16.106 0 0 0 205.05 54.85 A 15.763 15.763 0 0 0 207.899 58.644 A 13.876 13.876 0 0 0 210.45 60.6 Q 213.8 62.6 217.6 62.6 Q 221.5 62.6 224.9 60.65 A 14.018 14.018 0 0 0 230.109 55.388 A 16.714 16.714 0 0 0 230.3 55.05 A 15.793 15.793 0 0 0 231.944 50.345 A 21.887 21.887 0 0 0 232.3 46.3 Z M 263.334 74.282 A 10.067 10.067 0 0 0 266.3 74.7 A 10.931 10.931 0 0 0 267.205 74.663 A 8.148 8.148 0 0 0 272.4 72.35 Q 274.8 70 274.8 66.5 A 10.092 10.092 0 0 0 274.799 66.337 A 7.829 7.829 0 0 0 272.4 60.65 A 7.934 7.934 0 0 0 269.287 58.749 A 9.532 9.532 0 0 0 266.3 58.3 Q 262.5 58.3 260.05 60.65 Q 257.6 63 257.6 66.5 A 9.85 9.85 0 0 0 257.602 66.718 A 7.744 7.744 0 0 0 260.05 72.35 A 8.127 8.127 0 0 0 263.334 74.282 Z" vector-effect="non-scaling-stroke"/></g></svg>